# xmcd
#
# Track frame offsets:
#	225
#	16575
#	39285
#	56825
#	70660
#	81464
#	96226
#	106354
#	115616
#	131414
#	142974
#	155647
#	170141
#	182741
#	195248
#	208289
#	221031
#	234548
#	244130
#	256482
#
# Disc length: 3650 seconds
#
# Revision: 1
# Processed by: cddbd v1.5.2PL0 Copyright (c) Steve Scherf et al.
# Submitted via: audiograbber 1.83.01
#
DISCID=1e0e3f14
DTITLE=Various Artist - The Legends of Road Music [CD1]
DYEAR=2000
DGENRE=
TTITLE0=Drivin' My Life Away - David Allan Coe
TTITLE1=Teddy Bear - Red Sovine
TTITLE2=Convoy - TH Music Fest
TTITLE3=Sunny Side Of The Mountain - David Frizzell
TTITLE4=Six Days On The Road - Dave Dudley
TTITLE5=I'm A Truck - Red Simpson
TTITLE6=Looking At The World Through A Windshield - Del Reeves
TTITLE7=Tombstone Every Mile - David Allan Coe
TTITLE8=Phantom 309 - Red Sovine
TTITLE9=Give Me 40 Acres - Willis Brothers
TTITLE10=How Fast Them Trucks Can Go - Claude Gray
TTITLE11=18 Wheels Hummin Home Sweet Home - David Frizzell
TTITLE12=Widow Maker - Jimmy Martin
TTITLE13=Passing Zone Blues - Coleman Wilson
TTITLE14=Truck Drivers Prayer - Red Sovine
TTITLE15=Roll Truck Roll - Red Simpson
TTITLE16=Endless Black Ribbon - Tiny Harris
TTITLE17=Truck Drivers Queen - Moore and Napier
TTITLE18=Eight More Miles To Louisville - Grandpa Jones
TTITLE19=Gear Jammer And The Hobo - Johnny Bond - Red Sovine
EXTD=
EXTT0=
EXTT1=
EXTT2=
EXTT3=
EXTT4=
EXTT5=
EXTT6=
EXTT7=
EXTT8=
EXTT9=
EXTT10=
EXTT11=
EXTT12=
EXTT13=
EXTT14=
EXTT15=
EXTT16=
EXTT17=
EXTT18=
EXTT19=
PLAYORDER=
